<svg width="16" height="16" viewBox="0 0 16 16" fill="none" xmlns="http://www.w3.org/2000/svg">
<mask id="mask0_240_808" style="mask-type:alpha" maskUnits="userSpaceOnUse" x="0" y="1" width="16" height="14">
<path d="M13.9678 1.40918C14.2932 1.08374 14.821 1.08375 15.1465 1.40918C15.4718 1.73463 15.4719 2.26251 15.1465 2.58789L13.3271 4.40625C14.4954 5.33109 15.43 6.55919 16 8C15.1273 10.2253 13.3674 11.9778 11.1494 12.8506C9.04932 13.6761 6.82278 13.6172 4.87598 12.8574L3.14648 14.5879C2.82104 14.9131 2.29315 14.9132 1.96777 14.5879C1.6424 14.2625 1.64253 13.7346 1.96777 13.4092L13.9678 1.40918ZM10.1416 7.5918C10.1671 7.72549 10.1816 7.86193 10.1816 8C10.1816 8.5786 9.95207 9.13381 9.54297 9.54297C9.1338 9.95214 8.57865 10.1816 8 10.1816C7.86193 10.1816 7.72552 10.1671 7.5918 10.1416L6.44629 11.2881C6.92754 11.5156 7.45753 11.6367 8 11.6367C8.96442 11.6367 9.88934 11.2532 10.5713 10.5713C11.2532 9.88935 11.6367 8.96437 11.6367 8C11.6367 7.45757 11.5156 6.92753 11.2881 6.44629L10.1416 7.5918ZM8 2.5459C8.92641 2.5459 9.82755 2.69644 10.6768 2.97656L9.11426 4.53906C8.75742 4.42418 8.38185 4.36328 8 4.36328C7.03563 4.36328 6.11065 4.74683 5.42871 5.42871C4.74681 6.11061 4.36334 7.03565 4.36328 8C4.36328 8.38212 4.42402 8.75817 4.53906 9.11523L2.33496 11.3193C1.33413 10.4439 0.520437 9.32396 0 8C1.29459 4.72738 4.46552 2.5459 8 2.5459ZM5.82617 7.82715C5.86717 7.31187 6.08887 6.82519 6.45703 6.45703C6.82523 6.08888 7.31184 5.86712 7.82715 5.82617L5.82617 7.82715Z" fill="#006FFD"/>
</mask>
<g mask="url(#mask0_240_808)">
<rect width="16" height="16" fill="white"/>
</g>
</svg>
