<svg width="18" height="19" viewBox="0 0 18 19" fill="none" xmlns="http://www.w3.org/2000/svg">
<path d="M4.65044 7.45C4.52033 5.05 4.74694 0.75 8.80612 0.75C12.8536 0.75 12.9833 5.05 12.8536 7.45M8.80612 13.3V15.1M3.34184 18.25H14.2704C15.5638 18.25 16.6122 17.0412 16.6122 15.55V10.15C16.6122 8.65883 15.5638 7.45 14.2704 7.45H3.34184C2.04848 7.45 1 8.65883 1 10.15V15.55C1 17.0412 2.04848 18.25 3.34184 18.25ZM10.3673 11.95C10.3673 12.9441 9.66836 13.75 8.80612 13.75C7.94388 13.75 7.2449 12.9441 7.2449 11.95C7.2449 10.9559 7.94388 10.15 8.80612 10.15C9.66836 10.15 10.3673 10.9559 10.3673 11.95Z" stroke="#7D7D7D"/>
</svg>
